<svg width="20" height="16" viewBox="0 0 20 16" fill="none" xmlns="http://www.w3.org/2000/svg">
<path d="M1.45139 12.8612C0.652777 12.8612 0 13.514 0 14.3126C0 15.1112 0.652777 15.764 1.45139 15.764C2.25 15.764 2.90278 15.1112 2.90278 14.3126C2.90278 13.514 2.25694 12.8612 1.45139 12.8612Z" fill="white"/>
<path d="M19.3194 0.187546L10.1806 3.10421V0.222268L0.326385 3.3681V11.7223L8.82639 9.007V11.8751L20 8.31255L16.9722 5.35422L19.3194 0.187546ZM8.82639 7.57644L1.6875 9.85422V4.36116L8.82639 2.08338V7.57644ZM17.4722 7.69449L10.1806 10.0209V4.53477L16.8958 2.38894L15.3542 5.63894L17.4722 7.69449Z" fill="white"/>
</svg>
