<svg width="29" height="29" viewBox="0 0 29 29" fill="none" xmlns="http://www.w3.org/2000/svg">
<path d="M24.9125 15.865C24.965 15.4275 25 14.9725 25 14.5C25 14.0275 24.965 13.5725 24.895 13.135L27.8525 10.825C28.115 10.615 28.185 10.23 28.0275 9.9325L25.2275 5.085C25.0525 4.77 24.685 4.665 24.37 4.77L20.8875 6.17C20.1525 5.61 19.3825 5.155 18.525 4.805L18 1.095C17.9475 0.745 17.65 0.5 17.3 0.5H11.7C11.35 0.5 11.07 0.745 11.0175 1.095L10.4925 4.805C9.63501 5.155 8.84751 5.6275 8.13001 6.17L4.64751 4.77C4.33251 4.6475 3.96501 4.77 3.79001 5.085L0.990013 9.9325C0.815013 10.2475 0.885013 10.615 1.16501 10.825L4.12251 13.135C4.05251 13.5725 4.00001 14.045 4.00001 14.5C4.00001 14.955 4.03501 15.4275 4.10501 15.865L1.14751 18.175C0.885013 18.385 0.815013 18.77 0.972513 19.0675L3.77251 23.915C3.94751 24.23 4.31501 24.335 4.63001 24.23L8.11251 22.83C8.84751 23.39 9.61751 23.845 10.475 24.195L11 27.905C11.07 28.255 11.35 28.5 11.7 28.5H17.3C17.65 28.5 17.9475 28.255 17.9825 27.905L18.5075 24.195C19.365 23.845 20.1525 23.3725 20.87 22.83L24.3525 24.23C24.6675 24.3525 25.035 24.23 25.21 23.915L28.01 19.0675C28.185 18.7525 28.115 18.385 27.835 18.175L24.9125 15.865ZM14.5 19.75C11.6125 19.75 9.25001 17.3875 9.25001 14.5C9.25001 11.6125 11.6125 9.25 14.5 9.25C17.3875 9.25 19.75 11.6125 19.75 14.5C19.75 17.3875 17.3875 19.75 14.5 19.75Z" fill="white"/>
</svg>
